<svg width="189" height="189" viewBox="0 0 189 189" fill="none" xmlns="http://www.w3.org/2000/svg">
<g clip-path="url(#clip0)">
<path d="M115.005 65.6534C125.168 46.3743 122.286 24.8837 108.568 17.6527C94.851 10.4218 75.4923 20.1888 65.3297 39.468C55.167 58.7471 58.0488 80.2377 71.7663 87.4687C85.4838 94.6996 104.843 84.9326 115.005 65.6534Z" fill="#FF8D36"/>
<path opacity="0.2" d="M108.573 17.6534C106.933 16.7889 105.212 16.1702 103.437 15.7789C110.541 25.659 110.636 42.2142 102.629 57.4025C93.6812 74.3774 77.6051 83.9747 64.5265 81.0921C66.4401 83.7536 68.8576 85.9356 71.7687 87.4701C85.4859 94.7012 104.844 84.9341 115.008 65.655C125.171 46.3759 122.29 24.8845 108.573 17.6534Z" fill="black"/>
<path d="M162.277 68.8667C172.439 49.5876 169.558 28.097 155.84 20.866C142.123 13.6351 122.764 23.4021 112.601 42.6813C102.439 61.9604 105.32 83.4511 119.038 90.682C132.755 97.9129 152.114 88.1459 162.277 68.8667Z" fill="#69B551"/>
<path opacity="0.2" d="M156.15 21.0454C161.913 31.0643 161.503 46.4364 154.027 60.6188C143.864 79.8979 124.505 89.665 110.788 82.4339C110.683 82.3789 110.586 82.3154 110.483 82.2589C112.554 85.8595 115.414 88.775 119.04 90.6864C132.758 97.9175 152.117 88.1504 162.28 68.8713C172.365 49.7391 169.599 28.4356 156.15 21.0454Z" fill="black"/>
<path d="M35.68 53.58C41.4825 38.7531 29.2381 18.6409 18.708 24.8649C8.17791 31.089 19.8926 51.5136 35.68 53.58Z" fill="#8FE673"/>
<path d="M35.6801 53.5801C29.2987 38.9927 6.41903 33.4298 3.37436 45.2766C0.329687 57.1235 23.0555 63.2826 35.6801 53.5801Z" fill="#76CC5B"/>
<path d="M35.6801 53.58C25.9776 40.9554 32.1371 18.2293 43.9835 21.2743C55.83 24.3194 50.2674 47.1987 35.6801 53.58Z" fill="#76CC5B"/>
<path d="M38.274 55.2626C38.3552 55.1371 38.4287 55.0072 38.4903 54.8717C38.4999 54.851 38.5077 54.8296 38.5169 54.8086C38.5811 54.6594 38.6369 54.507 38.6775 54.3497L43.7985 34.4265C44.2238 32.7709 43.2271 31.0843 41.5715 30.659C39.9159 30.2327 38.2293 31.2304 37.8041 32.8857L34.5427 45.5738L27.8771 34.2965C27.0078 32.8251 25.1097 32.3371 23.6387 33.2068C22.1673 34.0762 21.6796 35.9743 22.549 37.4453L29.2149 48.7233L16.5268 45.4619C14.8712 45.0356 13.1846 46.0334 12.7594 47.6886C12.3341 49.3442 13.3308 51.0308 14.9864 51.456L34.9011 56.5749H34.9019L34.91 56.5771C34.9905 56.5978 35.0713 56.6092 35.1518 56.6233C35.1983 56.6314 35.2437 56.6439 35.291 56.6498C35.2932 56.6502 35.2954 56.6506 35.298 56.6509C35.4272 56.6672 35.5553 56.6753 35.683 56.6753C35.6896 56.6753 35.6959 56.6738 35.7026 56.6738C35.8502 56.6731 35.9979 56.6591 36.1459 56.6366C36.1954 56.6292 36.2437 56.617 36.2924 56.6074C36.3965 56.5863 36.4995 56.5609 36.6018 56.5288C36.6546 56.5122 36.7066 56.4944 36.7587 56.4752C36.8535 56.4398 36.9469 56.3981 37.0392 56.3527C37.0898 56.3279 37.1407 56.3043 37.1898 56.2766C37.2112 56.2648 37.2334 56.2563 37.2552 56.2438C37.3578 56.1832 37.4545 56.1164 37.5471 56.0463C37.5519 56.0426 37.5575 56.04 37.5623 56.0363C37.5734 56.0278 37.5826 56.0168 37.5933 56.0083C37.7048 55.9208 37.8081 55.827 37.9048 55.7274C37.9189 55.713 37.9336 55.6997 37.9473 55.6845C38.0492 55.5753 38.1404 55.4583 38.2242 55.3372C38.2411 55.3132 38.2577 55.2884 38.274 55.2626Z" fill="#599944"/>
<path d="M45.4335 95.2161C59.478 95.2161 70.8632 83.8309 70.8632 69.7864C70.8632 55.742 59.478 44.3567 45.4335 44.3567C31.3891 44.3567 20.0038 55.742 20.0038 69.7864C20.0038 83.8309 31.3891 95.2161 45.4335 95.2161Z" fill="#FF704D"/>
<path opacity="0.2" d="M45.4346 44.3578C43.2991 44.3578 41.2272 44.6243 39.2452 45.1204C50.2973 47.8849 58.4845 57.8779 58.4845 69.7864C58.4845 81.6949 50.2973 91.6879 39.2452 94.4524C41.2272 94.9478 43.2991 95.215 45.4346 95.215C59.4786 95.215 70.8632 83.8304 70.8632 69.7864C70.8632 55.7428 59.4786 44.3578 45.4346 44.3578Z" fill="black"/>
<path d="M67.1249 114.432C83.4299 114.432 96.6477 101.413 96.6477 85.3546C96.6477 69.2957 83.4299 56.2773 67.1249 56.2773C50.82 56.2773 37.6022 69.2957 37.6022 85.3546C37.6022 101.413 50.82 114.432 67.1249 114.432Z" fill="#FFC552"/>
<path opacity="0.2" d="M70.1643 56.4279C78.6246 61.5416 84.2695 70.7347 84.2695 81.2283C84.2695 97.2888 71.0514 110.308 54.7457 110.308C53.7191 110.308 52.7054 110.256 51.7054 110.155C56.1935 112.868 61.4725 114.434 67.1241 114.434C83.4294 114.434 96.6479 101.415 96.6479 85.3541C96.6483 70.3054 85.0411 57.927 70.1643 56.4279Z" fill="black"/>
<path d="M101.888 109.732C118.726 109.732 132.376 96.2872 132.376 79.7019C132.376 63.1166 118.726 49.6716 101.888 49.6716C85.0497 49.6716 71.3995 63.1166 71.3995 79.7019C71.3995 96.2872 85.0497 109.732 101.888 109.732Z" fill="#9773BF"/>
<path opacity="0.2" d="M112.249 51.4549C117.066 56.7654 119.998 63.7694 119.998 71.4505C119.998 88.0356 106.347 101.48 89.5089 101.48C85.8703 101.48 82.3822 100.85 79.1471 99.6986C84.7303 105.854 92.8477 109.733 101.887 109.733C118.726 109.733 132.376 96.2878 132.376 79.7026C132.376 66.7019 123.986 55.6328 112.249 51.4549Z" fill="black"/>
<path d="M180.039 83.2619C180.039 77.0795 175.027 72.0681 168.845 72.0681C166.794 72.0681 164.874 72.6222 163.222 73.5845C161.734 69.1489 157.547 65.9514 152.61 65.9514C150.559 65.9514 148.639 66.5052 146.986 67.4679C145.498 63.0323 141.311 59.8348 136.374 59.8348C131.437 59.8348 127.25 63.0323 125.762 67.4679C124.109 66.5052 122.189 65.9514 120.139 65.9514C115.202 65.9514 111.014 69.1489 109.527 73.5845C107.874 72.6218 105.954 72.0681 103.903 72.0681C97.7211 72.0681 92.7096 77.0799 92.7096 83.2619V100.084H180.039V83.2619H180.039Z" fill="#8FE673"/>
<g opacity="0.2">
<path opacity="0.2" d="M168.845 72.0684C167.388 72.0684 166 72.3523 164.724 72.8595C168.861 74.5036 171.786 78.5406 171.786 83.2626V100.085H180.039V83.2626C180.039 77.0795 175.027 72.0684 168.845 72.0684Z" fill="black"/>
</g>
<path d="M96.6484 95.9578L16.687 107.329V173.732H176.822V107.329L96.6484 95.9578Z" fill="#F2AE5D"/>
<path opacity="0.2" d="M16.687 107.329V119.636H176.822V107.329L96.6484 95.9578L16.687 107.329Z" fill="black"/>
<path d="M185.904 84.6572H7.39282V107.256H185.904V84.6572Z" fill="#F2AE5D"/>
<path d="M131.5 19.1159C127.732 21.0174 124.161 23.567 120.898 26.6416C118.457 21.4526 114.761 17.4585 110.017 14.9579C101.392 10.4109 90.6344 11.5312 80.5033 18.0325C79.0648 18.9554 78.6469 20.8697 79.5705 22.3086C80.4941 23.7475 82.4077 24.1647 83.8466 23.2415C92.0471 17.9794 100.533 16.9554 107.132 20.4334C111.317 22.6398 114.451 26.4895 116.264 31.6224C116.352 31.8734 114.68 33.6564 114.488 33.917C112.513 36.5973 110.725 39.5139 109.237 42.5279C109.067 42.8716 107.314 47.0484 107.226 47.0352C97.1047 45.4733 86.6348 48.5113 79.0714 55.4497C79.0238 55.4313 78.9758 55.4154 78.9278 55.3973C75.6783 54.1463 72.2327 53.4279 68.7551 53.264C68.7189 53.2626 68.6827 53.2585 68.6462 53.257C68.6414 53.25 68.6358 53.2434 68.631 53.2363C68.3531 52.8469 68.0648 52.4678 67.7698 52.095C67.758 52.0798 67.7458 52.0647 67.734 52.0496C66.8071 50.8838 65.8005 49.8015 64.7226 48.8085C65.6089 46.133 66.7322 43.4984 68.0736 40.9539C70.1604 36.9956 72.6942 33.3869 75.6059 30.2278C76.7643 28.9713 76.6846 27.013 75.4277 25.855C74.1707 24.6962 72.2128 24.7763 71.0548 26.0333C67.7798 29.5862 64.9345 33.6353 62.5982 38.0676C61.4099 40.3216 60.3759 42.6413 59.5026 44.999C56.8857 43.5147 54.0345 42.4493 51.0415 41.8561C53.6712 35.9978 54.2641 29.8122 52.4686 25.2152C51.0932 21.6936 48.3538 19.2448 44.7554 18.3201C43.7871 18.0709 42.8122 17.945 41.8587 17.945C37.7576 17.945 34.095 20.2522 31.5217 24.3001C28.8384 21.9218 25.8406 20.6512 22.7948 20.6512C20.8266 20.6512 18.9218 21.1868 17.1344 22.2437C12.5398 24.9594 10.7328 30.0296 12.0193 35.8376C6.01187 36.2083 1.70105 39.405 0.379153 44.5486C-0.517858 48.0385 0.183878 51.3999 2.40869 54.2688C5.51611 58.2762 11.4272 60.9148 18.1802 61.4183C17.3578 64.0784 16.913 66.903 16.913 69.8296C16.913 73.9429 17.7823 77.9337 19.4541 81.6067H7.39504C5.68592 81.6067 4.30053 82.9924 4.30053 84.7012V107.3C4.30053 109.009 5.68629 110.395 7.39504 110.395H13.4877V173.702C13.4877 175.411 14.8735 176.797 16.5822 176.797H176.717C178.427 176.797 179.812 175.411 179.812 173.702V110.394H185.905C187.614 110.394 188.999 109.009 188.999 107.3V84.7008C188.999 82.9917 187.614 81.6063 185.905 81.6063H183.031C182.188 74.5258 176.15 69.0164 168.846 69.0164C167.711 69.0164 166.587 69.1589 165.492 69.4232C167.642 65.1629 169.246 60.7207 170.249 56.1983C170.619 54.5302 169.566 52.8772 167.898 52.5069C166.23 52.1382 164.576 53.1898 164.206 54.8583C163.416 58.4239 162.207 61.9407 160.605 65.3423C160.571 65.3191 160.535 65.2995 160.5 65.2766C158.196 63.7358 155.379 62.9016 152.611 62.9001C151.212 62.9001 149.826 63.1061 148.498 63.5055C145.931 59.3862 141.387 56.7834 136.375 56.7834C133.516 56.7834 130.657 57.6793 128.297 59.2895C124.363 54.3323 119.165 50.6501 113.29 48.5697C113.231 48.5486 115.299 44.2533 115.499 43.8779C122.151 31.4305 138.943 15.5024 154.402 23.6508C160.905 27.079 164.851 34.5316 165.228 44.0979C165.295 45.8059 166.732 47.1348 168.443 47.068C170.151 47.0005 171.48 45.5615 171.413 43.8535C170.946 32.0207 165.798 22.6619 157.289 18.1757C149.745 14.1979 140.587 14.5323 131.5 19.1159ZM67.0017 59.4154C67.0434 59.4154 67.0847 59.4124 67.1257 59.4124C69.5192 59.4124 71.8802 59.7221 74.1896 60.3519C74.2704 60.3737 74.3516 60.3947 74.4325 60.4176C74.4841 60.432 74.5343 60.4501 74.586 60.4652C72.4889 63.3445 70.8917 66.5177 69.8311 69.8698C69.8178 69.9112 69.806 69.9529 69.7931 69.9946C68.6886 73.5332 68.191 77.2541 68.332 80.9584C68.3361 81.0625 68.3405 81.1659 68.3457 81.27C68.3512 81.3822 68.3538 81.4944 68.3605 81.607H40.9927C41.0101 81.4889 41.0256 81.37 41.0448 81.2526C41.9289 75.8075 44.6336 70.7152 48.5919 66.8816C53.5291 62.1005 60.0637 59.4494 67.0017 59.4154ZM59.1714 52.2135C59.1969 52.2349 59.2191 52.2603 59.2453 52.281C59.8492 52.7572 60.4225 53.2651 60.9714 53.7967C51.5203 55.5737 43.1448 61.5981 38.4759 70.0123C36.5911 73.4084 35.3294 77.2419 34.8082 81.1301C34.7897 81.2693 34.7664 81.4069 34.7495 81.5465C34.7469 81.5668 34.7432 81.5863 34.7413 81.6067H26.4634C24.2603 78.0729 23.1031 74.0323 23.1031 69.8296C23.1031 62.136 27.2268 54.8192 33.7709 50.7937C33.8045 50.7731 33.8366 50.7509 33.8698 50.7306C41.4859 46.1297 52.2039 46.3445 59.1714 52.2135ZM7.30017 50.4759C6.26215 49.1374 5.95908 47.7022 6.37326 46.0894C7.24406 42.7022 10.5708 41.9908 13.2086 41.9908C14.078 41.9908 14.9993 42.0717 15.9469 42.2312C17.0857 42.4227 18.2393 41.9624 18.934 41.0381C19.6284 40.1134 19.7498 38.8794 19.2485 37.8373C18.4002 36.0743 15.9672 30.1233 20.2847 27.5718C21.1175 27.0801 21.9384 26.8406 22.796 26.8406C25.0754 26.8406 27.621 28.5777 29.7801 31.6062C30.4512 32.5479 31.5918 33.037 32.7354 32.8738C33.8798 32.7114 34.8384 31.9244 35.2205 30.8336C36.6904 26.639 39.1721 24.1348 41.8595 24.1348C42.2936 24.1348 42.7499 24.1953 43.2153 24.3149C44.9042 24.749 46.0452 25.78 46.7045 27.4677C48.061 30.9414 47.1035 36.4596 44.3899 41.3257C44.3028 41.329 44.2168 41.336 44.1297 41.34C43.4143 41.3722 42.6996 41.4323 41.9891 41.5183L43.8004 34.47C44.2257 32.8144 43.229 31.1278 41.5738 30.7025C39.9178 30.2765 38.2316 31.274 37.8063 32.9292L35.1585 43.2308C35.1371 43.2389 35.116 43.2478 35.0946 43.2559C34.5704 43.4604 34.0492 43.6774 33.5383 43.9133L27.879 34.3386C27.0097 32.8675 25.1119 32.3792 23.6405 33.2492C22.1692 34.1185 21.6815 36.0167 22.5508 37.4881L28.2271 47.0916C27.7709 47.4371 27.3257 47.7952 26.8916 48.1677L16.5291 45.5043C14.8727 45.0783 13.1869 46.0758 12.7616 47.731C12.3364 49.3866 13.333 51.0732 14.9883 51.4984L22.1695 53.3441C21.7812 53.8912 21.4128 54.4527 21.0636 55.027C21.0562 55.0389 21.0488 55.051 21.0414 55.0629C20.9894 55.1492 20.934 55.2334 20.8831 55.3198C15.0769 55.408 9.59364 53.4335 7.30017 50.4759ZM182.811 87.7953V104.205H42.3862C40.6771 104.205 39.2917 105.591 39.2917 107.3C39.2917 109.009 40.6775 110.394 42.3862 110.394H173.623V137.375C168.654 137.334 163.615 137.344 158.88 137.406C157.171 137.428 155.804 138.832 155.827 140.541C155.849 142.236 157.23 143.595 158.92 143.595C158.934 143.595 158.948 143.595 158.962 143.595C163.67 143.533 168.682 143.524 173.623 143.564V170.608H19.6771V143.591C62.0925 143.521 103.474 143.523 146.07 143.595C146.071 143.595 146.073 143.595 146.075 143.595C147.782 143.595 149.167 142.213 149.17 140.506C149.173 138.797 147.79 137.409 146.08 137.406C103.482 137.333 62.0958 137.331 19.6775 137.401V110.394H30.834C32.5431 110.394 33.9285 109.009 33.9285 107.3C33.9285 105.591 32.5427 104.205 30.834 104.205H16.5822H10.4895V87.7957L182.811 87.7953ZM126.854 70.4069C128.795 69.676 128.949 67.3405 130.164 65.8857C134.158 61.1013 142.078 62.604 144.054 68.4948C144.091 68.6048 144.134 68.7126 144.182 68.817C144.522 69.5468 145.136 70.1205 145.898 70.4073C147.653 71.0684 149.348 69.5819 151.022 69.2467C154.017 68.6469 157.171 69.8451 159.028 72.2604C159.057 72.2988 159.091 72.3327 159.122 72.3696C160.283 73.7399 160.244 75.813 162.133 76.5236C163.003 76.8506 163.976 76.7698 164.78 76.3017C166.011 75.5845 167.418 75.2057 168.846 75.2057C172.73 75.2057 175.984 77.9533 176.766 81.6063H95.9873C96.1088 81.0396 96.2907 80.5007 96.5299 79.9739C98.4749 75.6886 103.899 73.9311 107.97 76.3014C108.764 76.7632 109.759 76.8466 110.617 76.5236C111.489 76.1958 112.166 75.4937 112.462 74.6114C113.569 71.3084 116.655 69.0891 120.14 69.0891C122.392 69.0887 124.656 71.2345 126.854 70.4069ZM123.589 63.3227C123.526 63.3072 123.462 63.2962 123.4 63.2814C122.333 63.0315 121.236 62.8993 120.14 62.8993C115.128 62.8993 110.584 65.5018 108.017 69.621C106.689 69.222 105.303 69.016 103.905 69.016C97.0508 69.016 90.8766 74.2818 89.7968 81.0437C89.7673 81.2301 89.7392 81.4184 89.7164 81.6055H74.5672C73.9622 81.6033 75.0367 75.339 75.1279 74.813C77.7551 59.6077 93.7108 50.0064 108.483 53.5988C114.398 55.0381 119.834 58.552 123.589 63.3227Z" fill="black"/>
</g>
<defs>
<clipPath id="clip0">
<rect width="189" height="189" fill="white"/>
</clipPath>
</defs>
</svg>
